<svg width="400" height="300" viewBox="0 0 400 300" fill="none" xmlns="http://www.w3.org/2000/svg">
  <!-- Background -->
  <rect width="400" height="300" fill="#f8fafc"/>
  
  <!-- Server Rack -->
  <rect x="50" y="80" width="120" height="180" fill="#1e293b" rx="8"/>
  <rect x="60" y="90" width="100" height="15" fill="#334155" rx="2"/>
  <rect x="60" y="110" width="100" height="15" fill="#334155" rx="2"/>
  <rect x="60" y="130" width="100" height="15" fill="#334155" rx="2"/>
  <rect x="60" y="150" width="100" height="15" fill="#334155" rx="2"/>
  <rect x="60" y="170" width="100" height="15" fill="#334155" rx="2"/>
  <rect x="60" y="190" width="100" height="15" fill="#334155" rx="2"/>
  <rect x="60" y="210" width="100" height="15" fill="#334155" rx="2"/>
  <rect x="60" y="230" width="100" height="15" fill="#334155" rx="2"/>
  
  <!-- Storage Arrays -->
  <rect x="200" y="100" width="80" height="60" fill="#475569" rx="4"/>
  <rect x="210" y="110" width="60" height="40" fill="#64748b" rx="2"/>
  <rect x="300" y="100" width="80" height="60" fill="#475569" rx="4"/>
  <rect x="310" y="110" width="60" height="40" fill="#64748b" rx="2"/>
  
  <rect x="200" y="180" width="80" height="60" fill="#475569" rx="4"/>
  <rect x="210" y="190" width="60" height="40" fill="#64748b" rx="2"/>
  <rect x="300" y="180" width="80" height="60" fill="#475569" rx="4"/>
  <rect x="310" y="190" width="60" height="40" fill="#64748b" rx="2"/>
  
  <!-- Data Flow -->
  <path d="M170 140 Q185 120 200 140" stroke="#3b82f6" stroke-width="3" fill="none" opacity="0.6"/>
  <path d="M170 160 Q185 180 200 160" stroke="#10b981" stroke-width="3" fill="none" opacity="0.6"/>
  <path d="M170 180 Q185 200 200 180" stroke="#f59e0b" stroke-width="3" fill="none" opacity="0.6"/>
  
  <!-- Scale Indicator -->
  <text x="200" y="50" text-anchor="middle" font-family="Arial, sans-serif" font-size="16" fill="#64748b">
    TB - PB Scale
  </text>
  
  <!-- Title -->
  <text x="200" y="30" text-anchor="middle" font-family="Arial, sans-serif" font-size="20" font-weight="bold" fill="#1e293b">
    Données Volumineuses
  </text>
  
  <!-- Subtitle -->
  <text x="200" y="280" text-anchor="middle" font-family="Arial, sans-serif" font-size="14" fill="#64748b">
    Gestion d'Entreprise et Archives
  </text>
</svg>
